<svg width="512" height="512" xmlns="http://www.w3.org/2000/svg" fill="none" data-locator-target="vscode">
 <g>
  <title>Layer 1</title>
  <g stroke="null" id="svg_6">
   <path stroke="null" d="m274.18038,391.98052c0,-65.36768 52.99007,-118.35538 118.35538,-118.35538l0,0c65.36531,0 118.35538,52.9877 118.35538,118.35538l0,0c0,65.36531 -52.99007,118.35538 -118.35538,118.35538l0,0c-65.36531,0 -118.35538,-52.99007 -118.35538,-118.35538l0,0z" fill="#858585" id="svg_1"/>
   <path stroke="null" d="m274.18038,120.62003c0,-65.36578 52.99007,-118.35538 118.35538,-118.35538l0,0c65.36531,0 118.35538,52.9896 118.35538,118.35538l0,106.51984c0,6.53558 -5.29995,11.83554 -11.83554,11.83554l-213.03969,0c-6.53558,0 -11.83554,-5.29995 -11.83554,-11.83554l0,-106.51984z" fill="#CCCCCC" id="svg_2"/>
   <path stroke="null" d="m237.62277,391.98052c0,65.36531 -52.9896,118.35538 -118.35538,118.35538l0,0c-65.36578,0 -118.35538,-52.99007 -118.35538,-118.35538l0.00002,-106.51984c0,-6.53795 5.29896,-11.83554 11.83554,-11.83554l213.03966,0c6.53653,0 11.83554,5.29759 11.83554,11.83554l0,106.51984z" fill="#0acf83" id="svg_3"/>
   <path stroke="null" d="m0.6315,121.39053c0,-65.36768 52.99007,-118.35538 118.35538,-118.35538l0,0c65.36531,0 118.35538,52.9877 118.35538,118.35538l0,0c0,65.36531 -52.99007,118.35538 -118.35538,118.35538l0,0c-65.36531,0 -118.35538,-52.99007 -118.35538,-118.35538l0,0z" fill="#ff5656" id="svg_4"/>
   <path stroke="null" d="m51.76147,121.39053c0,-37.12858 30.09815,-67.22541 67.22541,-67.22541l0,0c37.12725,0 67.22541,30.0968 67.22541,67.22541l0,0c0,37.12725 -30.09815,67.22541 -67.22541,67.22541l0,0c-37.12725,0 -67.22541,-30.09815 -67.22541,-67.22541l0,0z" fill="#ffffff" id="svg_5"/>
   <path stroke="null" d="m71.64534,121.39053c0,-26.14672 21.19574,-47.34151 47.34151,-47.34151l0,0c26.14579,0 47.34151,21.1948 47.34151,47.34151l0,0c0,26.14577 -21.19574,47.34151 -47.34151,47.34151l0,0c-26.14579,0 -47.34151,-21.19577 -47.34151,-47.34151l0,0z" fill="#56aaff" id="svg_7"/>
  </g>
 </g>

</svg>